 <svg version="1.0" xmlns="http://www.w3.org/2000/svg" width="700.000000pt" height="209.000000pt" viewBox="0 0 700.000000 209.000000" preserveAspectRatio="xMidYMid meet">
<metadata>
Created by potrace 1.12, written by Peter Selinger 2001-2015
</metadata>
<g transform="translate(0.000000,209.000000) scale(0.100000,-0.100000)" fill="#000000" stroke="none">
<path d="M5105 1364 c-16 -9 -42 -30 -57 -47 l-28 -31 -32 31 c-45 44 -76 53
-173 53 -67 0 -87 -4 -106 -19 -24 -19 -24 -20 -24 -240 0 -245 3 -254 65
-254 48 0 63 23 69 104 4 42 11 74 18 76 17 6 39 -33 53 -94 13 -59 38 -86 77
-84 76 3 91 3 132 -8 86 -23 188 13 222 79 11 20 19 55 19 85 0 72 -31 112
-119 159 -71 37 -86 58 -53 74 25 13 241 6 258 -9 11 -9 14 -48 14 -184 0
-190 3 -198 61 -198 58 0 63 15 69 211 l5 177 46 5 c57 7 79 24 79 60 0 54
-20 60 -201 60 -100 0 -169 -4 -175 -10 -7 -7 -20 -6 -40 5 -38 19 -140 19
-179 -1z m173 -37 c19 -20 4 -50 -22 -42 -11 3 -37 8 -56 11 -66 11 -116 -59
-77 -108 6 -9 43 -31 80 -48 72 -34 95 -58 103 -112 17 -104 -91 -173 -218
-138 -44 13 -52 23 -38 49 9 18 12 19 38 5 44 -23 109 -18 137 11 50 49 25
101 -68 144 -75 34 -97 57 -104 109 -12 88 61 148 167 137 24 -3 50 -11 58
-18z m-376 3 c20 -6 49 -25 63 -42 24 -28 27 -39 22 -82 -4 -42 -10 -55 -38
-78 l-33 -28 23 -24 c20 -21 60 -135 61 -173 0 -7 -11 -13 -24 -13 -32 0 -41
14 -56 88 -16 76 -44 105 -99 100 l-36 -3 -5 -90 c-5 -88 -6 -90 -30 -90 l-25
0 0 215 0 214 25 7 c38 11 111 10 152 -1z m766 -17 c3 -21 -1 -22 -65 -25
l-68 -3 -5 -195 -5 -195 -25 0 -25 0 -2 195 -2 195 -65 3 c-56 2 -66 6 -66 21
0 10 3 21 7 25 4 3 77 5 162 4 152 -3 156 -4 159 -25z m-615 -189 c12 -14 49
-40 81 -57 70 -38 86 -58 66 -82 -12 -14 -24 -16 -65 -10 -27 4 -62 7 -77 7
-31 -1 -39 8 -62 70 -16 44 -16 48 0 72 21 32 29 32 57 0z"></path>
<path d="M4788 1284 c-5 -4 -8 -40 -8 -81 l0 -73 49 0 c63 0 101 28 101 75 0
50 -27 77 -86 82 -27 3 -52 1 -56 -3z m96 -56 c15 -25 -4 -53 -35 -53 -25 0
-37 30 -25 61 8 20 46 14 60 -8z"></path>
<path d="M1314 1349 c-18 -20 -17 -24 35 -235 29 -118 61 -224 71 -236 21 -27
82 -30 106 -6 9 9 26 51 38 94 12 42 26 79 32 81 7 2 19 -26 29 -69 22 -91 30
-107 61 -118 34 -13 72 -2 90 25 16 24 124 403 124 434 0 45 -81 69 -113 34
-8 -10 -20 -36 -25 -58 -6 -22 -16 -59 -22 -82 -6 -24 -15 -43 -20 -43 -4 0
-16 34 -26 76 -22 92 -44 124 -85 124 -50 0 -67 -16 -85 -78 -28 -101 -35
-122 -44 -122 -5 0 -16 34 -25 75 -21 92 -44 125 -89 125 -21 0 -40 -8 -52
-21z m121 -191 c21 -98 43 -178 47 -178 4 0 8 8 8 18 0 22 67 289 80 320 8 18
17 23 37 20 25 -3 28 -9 55 -113 15 -60 32 -143 39 -182 12 -72 29 -99 29 -45
1 50 76 325 92 336 22 13 52 0 44 -20 -3 -9 -29 -100 -57 -203 -28 -102 -55
-194 -61 -204 -6 -12 -18 -17 -36 -15 -25 3 -29 10 -54 108 -15 58 -32 138
-39 178 -7 39 -15 72 -19 72 -3 0 -11 -28 -18 -62 -6 -35 -26 -115 -44 -178
-31 -108 -35 -115 -60 -118 -34 -4 -40 7 -68 130 -12 54 -34 144 -50 200 -16
56 -26 106 -23 111 3 4 17 7 31 5 26 -3 28 -7 67 -180z"></path>
<path d="M1981 1344 c-25 -32 -154 -416 -149 -446 5 -34 50 -53 85 -36 26 13
37 28 65 93 12 27 18 30 58 30 45 0 45 0 73 -58 16 -35 36 -61 50 -66 12 -4
56 -5 97 -2 85 7 94 16 105 104 4 26 10 47 14 47 4 0 15 -26 25 -57 23 -73 40
-93 82 -93 40 0 63 26 89 104 11 31 23 56 27 56 10 0 17 -32 20 -89 4 -55 38
-86 82 -75 48 12 51 34 35 270 -16 240 -18 244 -87 244 -51 0 -69 -15 -91 -75
-12 -30 -30 -80 -42 -110 -11 -30 -24 -55 -29 -55 -5 0 -23 43 -40 94 -41 124
-58 146 -114 146 -68 0 -74 -13 -87 -186 -6 -82 -13 -151 -16 -154 -8 -8 -21
23 -69 164 -26 78 -54 149 -62 159 -10 11 -30 17 -58 17 -34 0 -47 -5 -63 -26z
m95 -16 c10 -16 144 -415 144 -429 0 -5 -12 -9 -27 -7 -24 3 -31 11 -48 60
-11 32 -25 62 -31 68 -6 6 -40 10 -80 8 l-69 -3 -21 -60 c-22 -62 -41 -82 -67
-72 -14 5 -6 37 54 214 38 114 71 214 74 221 6 15 61 16 71 0z m340 -118 c24
-69 48 -149 55 -177 7 -29 15 -53 19 -53 4 0 12 24 19 53 7 28 33 108 59 177
46 123 48 125 80 128 20 2 34 -2 37 -10 7 -18 33 -421 28 -430 -2 -5 -15 -8
-28 -8 -22 0 -24 5 -30 83 -4 45 -8 131 -8 190 -1 59 -5 107 -8 107 -3 0 -11
-22 -17 -49 -16 -72 -101 -304 -117 -320 -28 -29 -44 -2 -97 163 -29 91 -56
166 -59 166 -4 0 -10 -62 -14 -137 -7 -163 -12 -192 -32 -200 -32 -12 -35 12
-23 218 7 112 14 210 16 217 2 9 17 12 40 10 l37 -3 43 -125z"></path>
<path d="M2011 1187 c-33 -118 -35 -112 32 -115 31 -2 57 1 57 5 1 14 -55 193
-60 193 -3 0 -16 -37 -29 -83z"></path>
<path d="M2796 1349 l-26 -20 0 -219 0 -219 27 -21 c30 -24 69 -20 91 7 6 9
12 43 12 75 0 64 -1 64 88 87 44 12 112 70 112 96 0 8 4 15 9 15 4 0 11 -37
15 -82 4 -51 15 -100 27 -126 44 -90 173 -124 270 -71 33 18 50 36 69 76 14
29 28 52 33 53 4 0 7 -24 7 -53 0 -65 16 -90 59 -90 46 0 65 24 71 91 3 31 9
56 15 55 5 -1 17 -25 27 -54 23 -67 43 -89 83 -89 40 0 56 18 85 98 12 34 26
62 30 62 4 0 10 -31 14 -69 7 -73 15 -85 57 -96 19 -5 33 0 53 17 l27 23 -13
217 c-12 185 -17 220 -33 238 -22 25 -90 27 -116 5 -9 -9 -34 -63 -55 -121
-21 -57 -42 -103 -47 -101 -5 1 -24 45 -43 96 -46 130 -55 141 -108 141 -68 0
-78 -19 -90 -160 -5 -66 -13 -120 -18 -120 -4 0 -8 56 -8 123 0 138 -8 157
-67 157 -52 0 -58 -17 -63 -195 -4 -142 -7 -166 -24 -184 -22 -24 -54 -27 -82
-7 -17 13 -19 31 -24 184 -6 187 -10 202 -65 202 -39 0 -64 -25 -72 -74 -7
-44 -13 -45 -34 -4 -25 52 -87 78 -184 78 -68 0 -87 -4 -109 -21z m222 -36
c60 -44 76 -130 36 -191 -21 -32 -89 -62 -141 -62 l-42 0 -3 -82 c-3 -82 -3
-83 -30 -86 l-28 -3 0 216 c0 214 0 216 23 225 37 16 155 5 185 -17z m202
-143 c5 -167 7 -177 43 -217 37 -42 118 -25 149 30 8 14 14 86 18 187 l5 165
25 0 25 0 0 -160 c0 -143 -3 -165 -22 -208 -18 -38 -31 -52 -65 -67 -82 -37
-173 -16 -213 52 -17 29 -20 55 -23 196 -2 90 -1 170 2 178 4 9 15 14 28 12
23 -3 23 -6 28 -168z m448 158 c5 -7 34 -86 63 -175 29 -90 55 -163 59 -163 3
0 12 24 19 53 18 67 90 268 104 285 6 7 24 12 41 10 l31 -3 6 -85 c4 -47 10
-147 14 -223 l7 -139 -29 4 -28 3 -9 178 c-5 97 -13 177 -17 177 -5 0 -9 -8
-9 -17 0 -22 -100 -313 -113 -331 -6 -7 -19 -12 -30 -10 -16 2 -30 34 -73 168
-29 91 -53 173 -54 183 0 9 -4 17 -8 17 -5 0 -9 -57 -11 -127 -1 -71 -5 -153
-9 -183 -6 -50 -9 -55 -32 -55 -29 0 -28 -24 -10 250 6 99 14 183 16 187 8 13
61 9 72 -4z"></path>
<path d="M2869 1286 c-2 -2 -3 -43 -1 -91 l4 -87 51 5 c92 8 128 88 68 148
-24 23 -38 29 -74 29 -24 0 -46 -2 -48 -4z m93 -53 c24 -21 23 -45 -3 -69 -26
-23 -53 -9 -57 30 -7 55 22 74 60 39z"></path>
<path d="M4224 1356 c-18 -14 -19 -28 -19 -240 0 -250 2 -259 65 -259 49 0 63
23 69 110 l6 78 56 5 c63 6 99 29 99 65 0 34 -32 55 -96 63 -57 7 -59 8 -59
37 0 30 0 30 65 33 38 2 71 9 81 18 8 8 19 11 22 7 4 -3 7 -91 7 -194 l0 -188
27 -21 c19 -15 35 -19 53 -15 48 12 50 23 50 260 0 202 -2 223 -18 238 -24 21
-70 22 -93 1 -16 -15 -20 -15 -41 0 -31 22 -244 23 -274 2z m251 -45 c0 -23
-3 -23 -85 -25 l-85 -1 0 -70 0 -70 80 -5 c72 -4 80 -7 80 -25 0 -18 -8 -21
-80 -25 l-80 -5 -5 -95 c-5 -93 -5 -95 -30 -95 l-25 0 -3 210 c-1 115 0 215 3
223 3 10 32 12 117 10 111 -3 113 -3 113 -27z m140 -196 l0 -220 -27 -3 -28
-3 0 226 0 226 28 -3 27 -3 0 -220z"></path>
</g>
</svg>